<svg width="24" height="24" viewBox="0 0 24 24" fill="none" xmlns="http://www.w3.org/2000/svg">
<path fill-rule="evenodd" clip-rule="evenodd" d="M1 2.00024C1 1.44796 1.44772 1.00024 2 1.00024H5C5.38569 1.00024 5.73701 1.22205 5.90284 1.57028L7.06008 4.00024H22C22.3033 4.00024 22.5902 4.13791 22.78 4.37452C22.9698 4.61112 23.042 4.92108 22.9762 5.21717L21.293 12.7915C21.0099 14.0654 19.9357 15.0102 18.6361 15.1284L10.7849 15.8421C9.31975 15.9753 7.97419 15.0264 7.60782 13.6015L5.48429 5.34292L4.36863 3.00024H2C1.44772 3.00024 1 2.55253 1 2.00024ZM7.71837 6.00024L9.54481 13.1035C9.66693 13.5784 10.1155 13.8947 10.6038 13.8503L18.455 13.1366C18.8882 13.0972 19.2463 12.7823 19.3406 12.3576L20.7534 6.00024H7.71837Z" fill="black"/>
<path fill-rule="evenodd" clip-rule="evenodd" d="M8 23.0002C9.65685 23.0002 11 21.6571 11 20.0002C11 18.3434 9.65685 17.0002 8 17.0002C6.34315 17.0002 5 18.3434 5 20.0002C5 21.6571 6.34315 23.0002 8 23.0002ZM8 21.0002C8.55228 21.0002 9 20.5525 9 20.0002C9 19.448 8.55228 19.0002 8 19.0002C7.44772 19.0002 7 19.448 7 20.0002C7 20.5525 7.44772 21.0002 8 21.0002Z" fill="black"/>
<path fill-rule="evenodd" clip-rule="evenodd" d="M22 20.0002C22 21.6571 20.6569 23.0002 19 23.0002C17.3431 23.0002 16 21.6571 16 20.0002C16 18.3434 17.3431 17.0002 19 17.0002C20.6569 17.0002 22 18.3434 22 20.0002ZM20 20.0002C20 20.5525 19.5523 21.0002 19 21.0002C18.4477 21.0002 18 20.5525 18 20.0002C18 19.448 18.4477 19.0002 19 19.0002C19.5523 19.0002 20 19.448 20 20.0002Z" fill="black"/>
</svg>
