<svg width="134" height="24" viewBox="0 0 134 24" fill="none" xmlns="http://www.w3.org/2000/svg">
<path d="M80.2463 8.85498H77.9751V20.3615H80.2463V8.85498Z" fill="black"/>
<path d="M61.1152 20.3615V4.00421H66.9099C72.1804 4.00421 75.0047 7.61406 75.0047 12.1827C75.0047 16.8362 72.0639 20.3613 66.8807 20.3613H61.1152V20.3615ZM66.473 18.4155C70.5496 18.4155 72.7333 16.3567 72.7333 12.1827C72.7333 7.92427 70.4041 5.95001 66.5604 5.95001H63.3864V18.4153H66.473V18.4155Z" fill="black"/>
<path d="M77.6587 5.01958C77.6587 4.23008 78.2993 3.60931 79.1148 3.60931C79.9299 3.60931 80.5707 4.2299 80.5707 5.01958C80.5707 5.80925 79.9301 6.42984 79.1148 6.42984C78.2993 6.42967 77.6587 5.78095 77.6587 5.01958Z" fill="black"/>
<path d="M57.1863 8.85492H54.915V20.3615H57.1863V8.85492Z" fill="black"/>
<path d="M37.9688 20.3614V4.00415H43.7633C49.0337 4.00415 51.8582 7.614 51.8582 12.1826C51.8582 16.8361 48.9172 20.3612 43.7342 20.3612H37.9688V20.3614ZM43.3265 18.4154C47.4029 18.4154 49.5869 16.3566 49.5869 12.1826C49.5869 7.92421 47.2574 5.94995 43.4138 5.94995H40.24V18.4153H43.3265V18.4154Z" fill="black"/>
<path d="M54.5957 5.01958C54.5957 4.23008 55.2363 3.60931 56.0516 3.60931C56.8669 3.60931 57.5077 4.2299 57.5077 5.01958C57.5077 5.80925 56.8671 6.42984 56.0516 6.42984C55.2653 6.42967 54.5957 5.78095 54.5957 5.01958Z" fill="black"/>
<path d="M102.641 8.51636C98.8264 8.51636 96.73 10.6314 96.73 14.4388C96.73 18.2742 98.8264 20.3611 102.641 20.3611C106.455 20.3611 108.552 18.2459 108.552 14.4388C108.523 10.6033 106.426 8.51636 102.641 8.51636ZM102.641 19.0076C99.6127 19.0076 98.1276 17.5128 98.1276 14.4105C98.1276 11.3082 99.6127 9.81344 102.641 9.81344C105.669 9.81344 107.154 11.3082 107.154 14.4105C107.154 17.5128 105.669 19.0076 102.641 19.0076Z" fill="black"/>
<path d="M115.629 8.51636C111.814 8.51636 109.718 10.6314 109.718 14.4388C109.718 18.2742 111.814 20.3611 115.629 20.3611C119.443 20.3611 121.54 18.2459 121.54 14.4388C121.51 10.6033 119.414 8.51636 115.629 8.51636ZM115.629 19.0076C112.601 19.0076 111.115 17.5128 111.115 14.4105C111.115 11.3082 112.601 9.81344 115.629 9.81344C118.657 9.81344 120.142 11.3082 120.142 14.4105C120.142 17.5128 118.657 19.0076 115.629 19.0076Z" fill="black"/>
<path d="M88.169 4.93472H97.0209V3.66559H86.7422V20.3612H88.169V12.9441H95.5068V11.6467H88.169V4.93472Z" fill="black"/>
<path d="M132.66 3.89123V10.1805C131.699 9.0806 130.244 8.4883 128.322 8.4883C124.682 8.4883 122.673 10.6035 122.673 14.439C122.673 18.2744 124.682 20.3896 128.322 20.3896C130.214 20.3896 131.67 19.7973 132.631 18.7257L132.748 20.1921H134V3.60931L132.66 3.89123ZM128.351 19.0076C125.497 19.0076 124.1 17.5128 124.1 14.4106C124.1 11.3083 125.497 9.8135 128.351 9.8135C131.204 9.8135 132.602 11.3083 132.602 14.4106C132.602 17.5128 131.204 19.0076 128.351 19.0076Z" fill="black"/>
<path d="M15.3743 18.698C20.5863 18.5287 24.7504 14.5239 24.8084 9.50418V5.21749H30.5447V9.98364C30.4282 17.7109 23.4981 23.8307 15.3741 24C7.10471 23.9436 0.1165 17.7956 0 9.98364V1.43838C0 0.564002 0.582322 0 1.45589 0H24.7794V5.21749H6.49336C6.02736 5.21749 5.73628 5.49958 5.73628 5.95057V9.41946C5.79453 14.496 10.0167 18.6416 15.3743 18.698Z" fill="black"/>
</svg>
