<svg width="190" height="22" viewBox="0 0 190 22" fill="none" xmlns="http://www.w3.org/2000/svg">
<path d="M55.1143 6.25301V15.9455H57.5338C58.1512 15.9363 58.7606 15.8035 59.3258 15.555C59.891 15.3065 60.4005 14.9473 60.8243 14.4987C61.6941 13.5789 62.17 12.3563 62.1506 11.0912C62.1691 10.4629 62.063 9.83706 61.8386 9.24976C61.6142 8.66246 61.2758 8.12525 60.8428 7.66898C60.4173 7.2197 59.9042 6.86219 59.3351 6.61846C58.766 6.37473 58.153 6.24994 57.5338 6.25178H55.1155L55.1143 6.25301ZM57.5338 3.21403C62.0433 3.21403 65.4547 6.70405 65.4547 11.0912C65.4547 15.4784 62.0433 18.9881 57.5338 18.9881H52.1976C52.1468 18.9875 52.0965 18.9768 52.0497 18.9568C52.003 18.9368 51.9606 18.9077 51.9251 18.8713C51.8896 18.8349 51.8616 18.7919 51.8427 18.7447C51.8239 18.6975 51.8145 18.6471 51.8152 18.5962V3.62194C51.8152 3.40504 51.9867 3.22882 52.1976 3.22882L57.5338 3.21403ZM77.0783 16.2831C79.1264 16.2893 80.9759 15.0311 81.7642 13.095C82.1504 12.1491 82.2537 11.1116 82.0614 10.1083C81.8691 9.10493 81.3896 8.17883 80.681 7.44223C79.9848 6.71772 79.0849 6.22123 78.1002 6.01837C77.1155 5.8155 76.0923 5.91579 75.1659 6.306C73.2733 7.10456 72.037 8.99376 72.0333 11.0912C72.0333 13.9503 74.2887 16.2696 77.0795 16.2831H77.0783ZM77.0795 2.85665C81.8259 2.85665 85.4545 6.59314 85.4545 11.0912C85.4545 15.5893 81.8259 19.3258 77.0783 19.3258C72.3319 19.3258 68.7342 15.6078 68.7342 11.0912C68.7342 6.57465 72.3627 2.85665 77.0783 2.85665H77.0795ZM96.9843 16.2831C99.7764 16.2757 102.035 13.954 102.033 11.0949C102.029 8.2334 99.7653 5.91658 96.9744 5.91534C94.1811 5.91534 91.9159 8.23093 91.9122 11.0912C91.9122 12.469 92.4464 13.7901 93.3977 14.7636C93.8633 15.2434 94.4205 15.6251 95.0363 15.8861C95.6521 16.1471 96.3141 16.2821 96.9831 16.2831H96.9843ZM96.9831 2.85665C101.715 2.85665 105.343 6.57465 105.343 11.0912C105.343 15.6078 101.7 19.3258 96.9831 19.3258C92.2675 19.3258 88.6081 15.6078 88.6081 11.0912C88.6081 6.57465 92.2367 2.85665 96.9831 2.85665ZM116.41 6.25301H112.999V10.4245H116.41C116.68 10.4365 116.949 10.3931 117.201 10.2971C117.453 10.201 117.683 10.0544 117.876 9.86626C118.271 9.48423 118.496 8.95432 118.5 8.3973C118.51 8.11471 118.463 7.83302 118.361 7.56915C118.26 7.30529 118.105 7.06468 117.908 6.86179C117.715 6.66212 117.481 6.50513 117.223 6.40092C116.965 6.2967 116.689 6.24758 116.41 6.25671V6.25301ZM109.699 3.62194C109.699 3.40504 109.871 3.22882 110.082 3.22882H116.505C119.568 3.22882 121.784 5.52715 121.784 8.41332C121.807 10.3654 120.74 12.1584 119.036 13.0322L121.998 18.3966C122.039 18.4583 122.062 18.5301 122.065 18.604C122.068 18.678 122.05 18.7512 122.013 18.8156C121.977 18.879 121.924 18.9308 121.86 18.9649C121.796 18.999 121.723 19.0139 121.65 19.0078H119.051C118.979 19.0089 118.908 18.9895 118.846 18.952C118.785 18.9145 118.735 18.8604 118.703 18.7959L115.848 13.4869H112.987V18.5839C112.987 18.6348 112.978 18.6854 112.959 18.7328C112.941 18.7801 112.913 18.8233 112.877 18.8598C112.842 18.8963 112.799 18.9255 112.752 18.9456C112.705 18.9657 112.655 18.9764 112.604 18.977H110.1C110.049 18.9764 109.998 18.9657 109.951 18.9456C109.905 18.9255 109.862 18.8963 109.827 18.8598C109.791 18.8233 109.763 18.7801 109.744 18.7328C109.726 18.6854 109.716 18.6348 109.717 18.5839L109.7 3.62317L109.699 3.62194ZM130.386 6.32695V16.0206H132.804C133.421 16.0123 134.03 15.8804 134.596 15.6327C135.161 15.3851 135.671 15.0267 136.096 14.5788C136.966 13.6601 137.443 12.4384 137.424 11.1738C137.444 10.5447 137.339 9.91784 137.115 9.32944C136.891 8.74104 136.553 8.20269 136.12 7.74539C135.694 7.29535 135.18 6.9374 134.61 6.69364C134.039 6.44989 133.425 6.3255 132.805 6.32818L130.386 6.32695ZM132.804 3.28427C137.313 3.28427 140.725 6.77799 140.725 11.1738C140.725 15.5696 137.313 19.0633 132.804 19.0633H127.484C127.433 19.0627 127.382 19.052 127.335 19.0319C127.289 19.0117 127.246 18.9826 127.211 18.9461C127.175 18.9095 127.147 18.8664 127.128 18.819C127.11 18.7717 127.1 18.7211 127.101 18.6702V3.69711C127.101 3.47899 127.273 3.30276 127.484 3.30276L132.805 3.28427H132.804ZM150.788 7.13907L148.916 12.3223H152.656L150.788 7.13907ZM147.818 15.2516L146.593 18.7022C146.568 18.7834 146.517 18.8541 146.448 18.9032C146.379 18.9523 146.295 18.977 146.21 18.9733H143.553C143.485 18.9796 143.417 18.9676 143.355 18.9386C143.294 18.9095 143.241 18.8645 143.203 18.8082C143.165 18.7513 143.141 18.6853 143.135 18.6166C143.129 18.548 143.141 18.479 143.17 18.4163L148.912 3.4568C148.939 3.37791 148.991 3.30993 149.06 3.26321C149.129 3.21649 149.211 3.1936 149.295 3.19801H152.268C152.352 3.19332 152.434 3.21609 152.504 3.26283C152.573 3.30957 152.625 3.3777 152.652 3.4568L158.394 18.4163C158.422 18.4791 158.434 18.5481 158.428 18.6168C158.422 18.6854 158.398 18.7514 158.359 18.8082C158.321 18.8643 158.269 18.9091 158.207 18.9379C158.146 18.9667 158.078 18.9785 158.01 18.9721H155.354C155.269 18.9757 155.185 18.9511 155.116 18.902C155.047 18.8529 154.996 18.7822 154.971 18.701L153.746 15.2504H147.818V15.2516ZM161.475 7.4755C161.475 4.99848 163.565 2.85665 166.865 2.85665C168.642 2.81701 170.363 3.48107 171.652 4.70394C171.692 4.74103 171.723 4.78573 171.744 4.83532C171.766 4.8849 171.777 4.93832 171.777 4.99231C171.777 5.0463 171.766 5.09972 171.744 5.14931C171.723 5.19889 171.692 5.2436 171.652 5.28068L170.18 6.77799C170.145 6.81437 170.103 6.84329 170.056 6.86305C170.01 6.8828 169.96 6.89298 169.909 6.89298C169.858 6.89298 169.808 6.8828 169.761 6.86305C169.715 6.84329 169.673 6.81437 169.637 6.77799C168.944 6.12894 168.034 5.76119 167.083 5.74651C165.763 5.74651 164.787 6.53152 164.787 7.4373C164.787 10.3654 172.589 8.67581 172.589 14.3101C172.585 17.1655 170.479 19.3258 166.755 19.3258C165.721 19.3364 164.696 19.1391 163.74 18.7458C162.783 18.3524 161.916 17.771 161.19 17.0361C161.15 16.999 161.119 16.9543 161.098 16.9047C161.076 16.8551 161.065 16.8017 161.065 16.7477C161.065 16.6937 161.076 16.6403 161.098 16.5907C161.119 16.5411 161.15 16.4964 161.19 16.4593L162.613 15.0002C162.649 14.9621 162.692 14.9317 162.74 14.9109C162.787 14.89 162.839 14.8793 162.891 14.8793C162.943 14.8793 162.995 14.89 163.042 14.9109C163.09 14.9317 163.133 14.9621 163.169 15.0002C164.065 15.8874 165.272 16.3913 166.533 16.4051C168.183 16.4051 169.27 15.503 169.27 14.373C169.27 11.4437 161.472 13.1345 161.472 7.49892L161.475 7.4755ZM186.735 3.60222V9.52244H180.132V3.60222C180.133 3.5514 180.123 3.50096 180.104 3.45376C180.086 3.40656 180.058 3.36354 180.022 3.32715C179.987 3.29076 179.944 3.26171 179.897 3.24167C179.851 3.22162 179.8 3.21098 179.75 3.21033H177.245C177.194 3.21098 177.144 3.22162 177.097 3.24167C177.05 3.26171 177.008 3.29076 176.972 3.32715C176.937 3.36354 176.909 3.40656 176.89 3.45376C176.871 3.50096 176.862 3.5514 176.863 3.60222V18.5593C176.863 18.7762 177.035 18.9524 177.245 18.9524H179.75C179.959 18.9524 180.132 18.7762 180.132 18.5593V12.5454H186.73V18.5593C186.73 18.7762 186.903 18.9524 187.113 18.9524H189.617C189.828 18.9524 190 18.7762 190 18.5593V3.60222C190.001 3.5514 189.991 3.50096 189.972 3.45376C189.953 3.40656 189.926 3.36354 189.89 3.32715C189.854 3.29076 189.812 3.26171 189.765 3.24167C189.719 3.22162 189.668 3.21098 189.617 3.21033H187.113C187.011 3.21292 186.914 3.2555 186.844 3.32886C186.773 3.40221 186.734 3.50043 186.735 3.60222V3.60222ZM37.7561 5.20674C36.0189 1.9903 32.6198 -0.012267 28.9234 5.65528e-05H0.955745C0.766872 0.000822318 0.5824 0.057084 0.425315 0.161831C0.26823 0.266579 0.145476 0.41518 0.0723491 0.589121C0.000291279 0.761946 -0.0184757 0.952321 0.0184517 1.13586C0.0553792 1.31941 0.14632 1.48776 0.279626 1.61937L6.3721 7.65789C6.91003 8.19273 7.6429 8.49219 8.40539 8.49219H28.1214C29.5267 8.4774 30.6753 9.58899 30.6902 10.9729C30.705 12.3568 29.5785 13.4906 28.1732 13.5042H14.5805C14.3915 13.5042 14.2067 13.5599 14.0492 13.6642C13.8916 13.7686 13.7683 13.9169 13.6947 14.0908C13.6219 14.2638 13.6027 14.4546 13.6394 14.6386C13.6761 14.8227 13.7671 14.9915 13.9007 15.1235L19.9969 21.1669C20.5382 21.7015 21.2689 22.0009 22.0302 22H28.1781C36.1768 22 42.2249 13.5707 37.7561 5.20305" fill="black"/>
</svg>
