<svg width="122" height="40" viewBox="0 0 122 40" fill="none" xmlns="http://www.w3.org/2000/svg">
<path d="M15.0255 0H16.1104C19.8769 0.0822426 23.582 1.60373 26.2431 4.29718C25.2605 5.30465 24.2575 6.271 23.2954 7.27847C21.8011 5.92147 19.9997 4.87288 18.0346 4.50278C15.1279 3.88596 11.996 4.4411 9.56006 6.10652C6.89897 7.85417 5.09761 10.8149 4.70868 13.9812C4.27881 17.1065 5.15902 20.3962 7.18554 22.8223C9.13019 25.1868 12.0983 26.6672 15.1688 26.77C18.0346 26.9345 21.0232 26.0504 23.1112 24.0354C24.7488 22.6167 25.5061 20.4579 25.7518 18.3607C22.3538 18.3607 18.9558 18.3812 15.5578 18.3607V14.1252H29.8662C30.6032 18.6691 29.5387 23.7887 26.0998 27.0373C23.8071 29.3401 20.6343 30.6971 17.4 30.9644C14.2681 31.2728 11.0339 30.6765 8.24998 29.155C4.91338 27.3662 2.25229 24.3438 0.942213 20.7868C-0.285983 17.5177 -0.306453 13.8168 0.839863 10.5271C1.88383 7.5252 3.88988 4.87288 6.4691 3.02242C8.94596 1.19252 11.955 0.185046 15.0255 0Z" fill="#B3B3B3"/>
<path d="M97.1108 1.06946H101.491V30.43C100.038 30.43 98.5642 30.4506 97.1108 30.4095C97.1313 20.6432 97.1108 10.8563 97.1108 1.06946V1.06946Z" fill="#B3B3B3"/>
<path d="M39.6111 11.2467C42.3132 10.7326 45.2404 11.3083 47.4716 12.9326C49.4981 14.3719 50.9105 16.6335 51.3404 19.1008C51.8931 21.9587 51.1971 25.0839 49.3548 27.3455C47.3692 29.8745 44.1145 31.2315 40.9417 31.0259C38.0349 30.8614 35.2101 29.4016 33.4906 27.0166C31.546 24.3848 31.0752 20.7662 32.1396 17.6821C33.204 14.3719 36.2131 11.8429 39.6111 11.2467V11.2467ZM40.2252 15.1532C39.1198 15.441 38.0963 16.0784 37.3594 16.983C35.3738 19.3681 35.4967 23.254 37.687 25.4745C38.9356 26.7493 40.8189 27.3455 42.5588 26.996C44.1759 26.7082 45.5884 25.6184 46.3662 24.1792C47.7172 21.7325 47.3283 18.3606 45.2608 16.4485C43.9303 15.2148 41.9856 14.7008 40.2252 15.1532Z" fill="#B3B3B3"/>
<path d="M61.3054 11.2467C64.3963 10.6504 67.7739 11.514 70.087 13.6934C73.8535 17.0859 74.2629 23.4392 71.0491 27.3457C69.1044 29.813 65.9521 31.17 62.8406 31.0261C59.8725 30.9439 56.9453 29.4635 55.1849 27.0168C53.1993 24.3233 52.7694 20.6224 53.8952 17.4766C55.0211 14.2691 57.9688 11.8224 61.3054 11.2467V11.2467ZM61.9195 15.1532C60.8141 15.4411 59.7906 16.0785 59.0537 16.9626C57.0886 19.3065 57.1704 23.1308 59.2789 25.3719C60.5275 26.7084 62.4722 27.3663 64.2735 26.9962C65.8702 26.6878 67.3031 25.6186 68.0809 24.1794C69.4115 21.7121 69.0226 18.3401 66.9346 16.428C65.6041 15.1944 63.6594 14.7009 61.9195 15.1532Z" fill="#B3B3B3"/>
<path d="M79.7103 12.4394C82.0643 10.9591 85.1962 10.5479 87.7345 11.8226C88.5328 12.1721 89.1879 12.7684 89.8224 13.3647C89.8429 12.8095 89.8224 12.2338 89.8429 11.6581C91.2144 11.6787 92.5859 11.6581 93.9778 11.6787V29.8132C93.9574 32.5477 93.2614 35.4468 91.2963 37.4412C89.1469 39.6411 85.8513 40.3196 82.8831 39.8673C79.7103 39.3944 76.9468 37.0711 75.7186 34.1309C76.9468 33.5346 78.2364 33.0617 79.5056 32.5066C80.222 34.1926 81.6754 35.6318 83.4972 35.9608C85.319 36.2898 87.4274 35.8374 88.6147 34.3159C89.8838 32.7533 89.8838 30.615 89.8224 28.7029C88.8808 29.6281 87.7959 30.4505 86.4858 30.759C83.6405 31.5608 80.5086 30.5739 78.3183 28.6412C76.1076 26.7085 74.7975 23.7272 74.9203 20.7665C74.9817 17.4151 76.8649 14.1871 79.7103 12.4394V12.4394ZM83.9476 15.0712C82.6989 15.2768 81.5321 15.9759 80.7338 16.9422C78.8096 19.245 78.8096 22.9254 80.7542 25.187C81.8596 26.5235 83.6405 27.2636 85.36 27.0786C86.9771 26.9141 88.4714 25.8861 89.2697 24.4674C90.6208 22.0618 90.3956 18.7927 88.5738 16.6955C87.4479 15.4002 85.6466 14.7628 83.9476 15.0712V15.0712Z" fill="#B3B3B3"/>
<path d="M106.75 13.4878C109.206 11.185 112.993 10.4037 116.146 11.6168C119.134 12.7476 121.038 15.6055 122 18.5457C117.558 20.3962 113.137 22.2261 108.695 24.0765C109.309 25.2485 110.25 26.3176 111.519 26.7494C113.3 27.3868 115.429 27.1606 116.923 25.9681C117.517 25.5158 117.988 24.9195 118.438 24.3438C119.564 25.1046 120.69 25.8447 121.816 26.6055C120.219 29.0111 117.538 30.6971 114.651 30.9644C111.458 31.355 108.06 30.1214 105.993 27.613C102.595 23.6653 102.922 17.0448 106.75 13.4878V13.4878ZM108.94 17.2915C108.244 18.299 107.958 19.5326 107.978 20.7457C110.946 19.5121 113.914 18.2784 116.883 17.0242C116.391 15.8728 115.204 15.1738 113.996 14.9887C112.052 14.6392 110.025 15.6878 108.94 17.2915V17.2915Z" fill="#B3B3B3"/>
</svg>
