<svg width="106" height="22" viewBox="0 0 106 22" fill="none" xmlns="http://www.w3.org/2000/svg">
<path d="M73.9533 0.354265H70.2716C70.2233 0.354066 70.1755 0.363347 70.1309 0.38157C70.0863 0.399793 70.0457 0.426599 70.0116 0.460441C69.9775 0.494282 69.9504 0.53449 69.9321 0.578744C69.9137 0.622999 69.9043 0.670423 69.9045 0.718282V8.69566H66.1688V0.718282C66.169 0.670423 66.1597 0.622999 66.1413 0.578744C66.1229 0.53449 66.0959 0.494282 66.0618 0.460441C66.0276 0.426599 65.9871 0.399793 65.9425 0.38157C65.8979 0.363347 65.8501 0.354066 65.8018 0.354265H62.1331C62.0849 0.354133 62.0372 0.363462 61.9926 0.381714C61.948 0.399967 61.9076 0.426783 61.8735 0.460619C61.8394 0.494454 61.8124 0.534639 61.7941 0.57886C61.7758 0.623082 61.7664 0.670465 61.7666 0.718282V21.2678C61.7666 21.4703 61.9295 21.6318 62.1331 21.6318H65.8154C65.8636 21.6319 65.9114 21.6226 65.9559 21.6043C66.0005 21.5861 66.041 21.5593 66.075 21.5254C66.1091 21.4916 66.1361 21.4514 66.1544 21.4072C66.1728 21.363 66.1821 21.3156 66.1819 21.2678V13.0074H69.9182V21.2678C69.9182 21.4703 70.0815 21.6318 70.2852 21.6318H73.967C74.0152 21.632 74.063 21.6227 74.1076 21.6045C74.1523 21.5862 74.1928 21.5594 74.2269 21.5256C74.261 21.4918 74.2881 21.4515 74.3064 21.4073C74.3248 21.363 74.3342 21.3156 74.334 21.2678V0.718282C74.3342 0.670423 74.3248 0.622999 74.3064 0.578744C74.2881 0.53449 74.261 0.494282 74.2269 0.460441C74.1928 0.426599 74.1523 0.399793 74.1076 0.38157C74.063 0.363347 74.0152 0.354066 73.967 0.354265H73.9533ZM42.6912 0.354265H38.9278C38.7377 0.354265 38.5749 0.489271 38.5607 0.67778V15.3385C38.588 15.945 38.4115 16.5385 38.0445 17.0096L38.0581 16.9961C37.7617 17.3198 37.3484 17.5142 36.9082 17.5369C36.4679 17.5597 36.0365 17.4089 35.7078 17.1176C35.6604 17.0841 35.619 17.0431 35.5853 16.9961C35.2376 16.5249 35.0649 15.949 35.0962 15.366V0.67778C35.096 0.633081 35.0865 0.588905 35.0684 0.547997C35.0502 0.507089 35.0238 0.470323 34.9907 0.439982C34.9576 0.409642 34.9185 0.386376 34.876 0.37163C34.8334 0.356885 34.7883 0.350974 34.7433 0.354265H30.9658C30.9211 0.3503 30.876 0.355211 30.8332 0.368712C30.7905 0.382213 30.7508 0.404032 30.7167 0.432895C30.6825 0.461758 30.6545 0.497086 30.6342 0.536814C30.614 0.576543 30.6019 0.619875 30.5987 0.66428V15.3795V15.339C30.4767 17.1041 31.0474 18.8421 32.1883 20.1897L32.1747 20.1762C32.7774 20.7771 33.4989 21.2478 34.2939 21.5586C35.089 21.8694 35.9402 22.0137 36.7942 21.9823H36.8487C37.7026 22.0137 38.5539 21.8694 39.3489 21.5586C40.1439 21.2478 40.8655 20.7771 41.4682 20.1762L41.4545 20.1897C42.5976 18.8379 43.1675 17.099 43.0441 15.339V0.67778C43.0368 0.589746 42.9964 0.507647 42.931 0.447736C42.8655 0.387825 42.7798 0.354467 42.6907 0.354265H42.6912ZM6.29333 0.00424841H6.26611C5.41221 -0.0272676 4.56098 0.116834 3.76597 0.427488C2.97096 0.738142 2.24937 1.20862 1.64661 1.80933L1.68745 1.75583C0.519313 3.09266 -0.0798697 4.82711 0.0162008 6.59356V15.3925V15.3525C-0.105803 17.1176 0.464891 18.8556 1.60578 20.2032L1.59216 20.1897C2.19484 20.7906 2.91638 21.2613 3.7114 21.5721C4.50642 21.8829 5.35769 22.0272 6.21166 21.9958H6.27972C7.13369 22.0272 7.98496 21.8829 8.77998 21.5721C9.57499 21.2613 10.2965 20.7906 10.8992 20.1897C12.0423 18.8379 12.6121 17.099 12.4888 15.339V10.5547C12.4839 10.4574 12.4419 10.3656 12.3711 10.298C12.3004 10.2304 12.2064 10.192 12.1082 10.1907H6.67346C6.57385 10.1917 6.47819 10.2295 6.40533 10.2969C6.33246 10.3643 6.28765 10.4563 6.27972 10.5547V14.1389C6.29333 14.3544 6.45617 14.5164 6.67346 14.5164H8.16825V15.3385C8.19896 15.955 8.01687 16.5635 7.65201 17.0636L7.66562 17.0496C7.33944 17.4541 6.8368 17.6831 6.32056 17.6426H6.29333C5.77709 17.6826 5.27445 17.4811 4.94827 17.0766C4.56806 16.5883 4.37542 15.9817 4.4048 15.3655V6.64706V6.66056C4.37856 6.02807 4.58095 5.40707 4.97549 4.90948C5.30168 4.50496 5.80431 4.27595 6.32056 4.31645H6.34778C6.86403 4.27645 7.36616 4.47846 7.69284 4.88248L7.72007 4.90948C8.06308 5.42201 8.22105 6.03463 8.16825 6.64756V7.4561C8.18186 7.64511 8.3447 7.77962 8.53477 7.77962H12.2171C12.4071 7.77962 12.57 7.64461 12.5836 7.4561V6.60756V6.63406C12.6789 4.86898 12.0809 3.1439 10.8992 1.81033H10.9128C10.3083 1.21183 9.58633 0.742706 8.79167 0.431967C7.99702 0.121228 7.14654 -0.0245155 6.29283 0.00374839L6.29333 0.00424841ZM56.8754 10.6498L56.9026 10.6223C57.457 10.094 57.898 9.45998 58.1991 8.75839C58.5003 8.0568 58.6554 7.30208 58.655 6.53956V6.59356C58.6827 5.0209 58.1212 3.49398 57.0791 2.30836V2.32186C56.5091 1.69059 55.8089 1.18821 55.0261 0.848732C54.2433 0.509258 53.396 0.340628 52.5417 0.354265H46.6715C46.6232 0.354066 46.5754 0.363347 46.5308 0.38157C46.4861 0.399793 46.4456 0.426599 46.4115 0.460441C46.3774 0.494282 46.3503 0.53449 46.332 0.578744C46.3136 0.622999 46.3042 0.670423 46.3044 0.718282V21.2678C46.3044 21.4703 46.4678 21.6318 46.6715 21.6318H52.8407C54.702 21.6588 56.4816 20.8637 57.6775 19.4487L57.6639 19.4622C58.6265 18.1983 59.1077 16.6377 59.0225 15.056V15.11C59.0225 13.3714 58.2346 11.7408 56.8759 10.6498H56.8754ZM50.6935 4.67947H52.5548H52.5412C52.7696 4.6639 52.9986 4.69809 53.2123 4.77963C53.4259 4.86118 53.619 4.9881 53.7779 5.15149L53.8046 5.17849C54.1288 5.61281 54.2834 6.14891 54.2397 6.68756V6.66056C54.2941 7.22659 54.1172 7.80612 53.7779 8.27764V8.26414C53.6275 8.43707 53.4389 8.57324 53.2268 8.66204C53.0146 8.75085 52.7847 8.78991 52.5548 8.77616H50.6935V4.67997V4.67947ZM54.1444 16.8075L54.158 16.794C53.9915 16.9903 53.78 17.1441 53.5413 17.2425C53.3025 17.341 53.0434 17.3813 52.7857 17.3601H50.6935V12.9134H52.813H52.7994C53.057 12.8921 53.3161 12.9324 53.5549 13.0309C53.7936 13.1294 54.0051 13.2832 54.1716 13.4794L54.158 13.4659C54.5212 13.9255 54.7045 14.4998 54.6743 15.083V15.0965C54.7015 15.7025 54.4978 16.2955 54.1308 16.7805L54.1444 16.8075V16.8075ZM25.3007 12.4683L25.3143 12.4553C25.6944 12.1988 26.0342 11.8893 26.3468 11.5523L26.3332 11.5793C27.4578 10.2874 28.0497 8.62236 27.9908 6.91657V6.87657C28.0201 5.19194 27.4033 3.55913 26.2651 2.30836L26.3332 2.38886C25.774 1.76236 25.0913 1.25619 24.3272 0.901602C23.5631 0.547018 22.7339 0.351549 21.8906 0.327264H15.7088C15.6605 0.327065 15.6127 0.336345 15.5681 0.354569C15.5235 0.372792 15.4829 0.399598 15.4488 0.433439C15.4147 0.467281 15.3877 0.507489 15.3693 0.551743C15.3509 0.595997 15.3416 0.643422 15.3418 0.691281V21.2678C15.3418 21.4703 15.5046 21.6318 15.7088 21.6318H19.3906C19.4388 21.632 19.4866 21.6227 19.5312 21.6045C19.5759 21.5862 19.6164 21.5594 19.6505 21.5256C19.6846 21.4918 19.7117 21.4515 19.73 21.4073C19.7484 21.363 19.7578 21.3156 19.7576 21.2678V13.6549H21.1163L23.4394 21.4168C23.4797 21.5648 23.6294 21.6728 23.7923 21.6728H27.7054C27.7634 21.6723 27.8205 21.6587 27.8723 21.6329C27.9241 21.6072 27.9693 21.57 28.0044 21.5243C28.0311 21.4746 28.0451 21.4191 28.0451 21.3628C28.0451 21.3064 28.0311 21.251 28.0044 21.2012L25.3007 12.4688V12.4683ZM23.032 8.68216C22.8452 8.88038 22.6172 9.03602 22.3639 9.13832C22.1105 9.24062 21.8377 9.28715 21.5644 9.27469H19.7576V4.67947H21.5508C21.8241 4.66721 22.0968 4.71393 22.3501 4.8164C22.6034 4.91888 22.8312 5.07466 23.0179 5.273V5.2595C23.4006 5.71577 23.599 6.29656 23.575 6.88957V6.91657C23.6158 7.5636 23.4257 8.18363 23.0179 8.68166H23.0315L23.032 8.68216ZM103.871 10.6493L103.898 10.6223C104.452 10.094 104.893 9.46004 105.194 8.75845C105.496 8.05686 105.651 7.30211 105.651 6.53956V6.62006C105.707 5.01043 105.143 3.43986 104.075 2.22735L104.102 2.26736C103.532 1.63612 102.831 1.13379 102.049 0.794397C101.266 0.455008 100.418 0.286491 99.564 0.300262H93.6675C93.6192 0.300064 93.5714 0.309344 93.5268 0.327567C93.4822 0.345791 93.4417 0.372596 93.4075 0.406438C93.3734 0.44028 93.3464 0.480488 93.328 0.524742C93.3096 0.568996 93.3003 0.616421 93.3005 0.66428V21.2678C93.3005 21.4703 93.4633 21.6318 93.6675 21.6318H99.808C101.67 21.6588 103.449 20.8637 104.645 19.4487L104.632 19.4622C105.594 18.1983 106.076 16.6377 105.99 15.056V15.083C105.99 13.3579 105.202 11.7138 103.844 10.6358L103.871 10.6493V10.6493ZM97.6891 4.67997H99.5504H99.5368C99.765 4.66441 99.9939 4.69856 100.207 4.78001C100.421 4.86147 100.614 4.98825 100.773 5.15149L100.8 5.17849C101.124 5.61288 101.279 6.14898 101.235 6.68756V6.66056C101.289 7.22659 101.113 7.80612 100.773 8.27764V8.26414C100.623 8.437 100.434 8.57312 100.222 8.66193C100.01 8.75074 99.7801 8.78983 99.5504 8.77616H97.6891V4.67997ZM101.14 16.8075L101.154 16.794C100.987 16.9903 100.776 17.1441 100.537 17.2425C100.298 17.341 100.039 17.3813 99.7813 17.3601H97.6891V12.9134H99.8085H99.7949C100.053 12.8921 100.312 12.9324 100.55 13.0309C100.789 13.1294 101.001 13.2832 101.167 13.4794L101.154 13.4659C101.517 13.9255 101.7 14.4998 101.67 15.083V15.0965C101.697 15.7025 101.493 16.2955 101.126 16.7805L101.14 16.8075ZM89.6868 0.354265H85.8956C85.8509 0.35037 85.8059 0.355334 85.7632 0.368867C85.7205 0.382399 85.6809 0.40423 85.6468 0.433087C85.6127 0.461943 85.5847 0.497247 85.5645 0.53694C85.5443 0.576633 85.5322 0.619921 85.5291 0.66428V15.339C85.5563 15.9315 85.3929 16.511 85.04 16.9826C84.7437 17.3063 84.3303 17.5007 83.8901 17.5234C83.4499 17.5462 83.0184 17.3954 82.6897 17.1041C82.6423 17.0706 82.6009 17.0296 82.5672 16.9826C82.2196 16.5114 82.0468 15.9355 82.0782 15.3525V0.67778C82.0646 0.489271 81.9017 0.354265 81.7112 0.354265H77.9341C77.744 0.354265 77.5812 0.489271 77.5676 0.67778V15.3795C77.4451 17.1041 78.0163 18.8421 79.1571 20.1897L79.1975 20.2302C81.8473 22.5883 85.8825 22.5613 88.4909 20.1497L88.4365 20.1897C89.5796 18.8379 90.1494 17.099 90.026 15.339V0.67778C90.0124 0.502772 89.8632 0.354265 89.6868 0.354265V0.354265Z" fill="black"/>
</svg>
