<svg width="134" height="22" viewBox="0 0 134 22" fill="none" xmlns="http://www.w3.org/2000/svg">
<path d="M0 21.6751V0H8.87007C12.6934 0 15.1716 2.86081 15.1716 6.58693C15.1716 10.3696 12.6864 13.1703 8.87007 13.1703H3.39232V21.6751H0ZM3.38884 2.93498V10.2883H8.7241C10.4203 10.2883 11.7827 8.5224 11.7827 6.59753C11.7827 4.67266 10.4203 2.93498 8.7241 2.93498H3.38884ZM32.2896 17.0836C33.381 16.8682 34.4411 16.6528 35.5012 16.4656C35.7132 17.6982 36.4396 19.1745 38.89 19.1745C39.4357 19.1745 42.1329 18.9591 42.1329 16.9918C42.1329 13.2657 32.7484 17.1119 32.7484 10.4367C32.7484 7.78777 35.3517 5.78873 38.6224 5.78873C41.893 5.78873 44.6806 7.17322 45.1324 10.6521C44.0445 10.8358 42.9844 11.0512 41.9243 11.2667C41.7123 9.32766 40.534 8.62129 38.7127 8.62129C37.1069 8.62129 36.019 9.48306 36.019 10.4367C36.019 11.6975 37.1695 12.0366 38.9873 12.2203C42.4387 12.5911 45.3757 13.3575 45.3757 16.9918C45.3757 20.2517 42.5604 21.9753 38.8935 21.9753C34.9589 21.9753 32.7171 19.8844 32.2896 17.0836V17.0836ZM46.2273 8.60716V6.08188H48.8619V1.59994H52.136V6.09247H55.3163V8.60716H52.136V17.4368C52.136 18.6694 52.501 19.0368 53.5611 19.0368C54.0129 19.0368 55.0139 18.9767 55.0139 18.9767V21.6751C55.0139 21.6751 53.8426 21.7987 52.6817 21.7987C49.8038 21.7987 48.8584 20.227 48.8584 17.2426V8.60716H46.2273ZM66.7028 12.9867C66.7028 10.6168 66.1884 8.61776 63.7345 8.61776C61.4023 8.61776 60.7663 10.6168 60.7663 12.9867V21.6751H57.4956V6.09247H60.4778L60.7802 7.78424C61.2355 6.92246 63.0533 5.7852 64.8398 5.7852C67.3806 5.7852 68.5936 7.19795 69.108 8.1233C69.9248 6.7388 71.9234 5.7852 73.7099 5.7852C77.8808 5.7852 79.1633 8.37052 79.1633 12.9867V21.6751H75.91V12.9867C75.91 10.6486 75.274 8.58597 72.9418 8.58597C70.4879 8.58597 69.9735 10.585 69.9735 12.9867V21.6751H66.7028V12.9867ZM85.086 11.4327C84.0433 11.249 82.938 11.0018 81.8466 10.8181C82.1942 7.37101 84.9748 5.77107 88.1759 5.77107C92.5067 5.77107 94.7485 7.92551 94.7485 12.1708V17.5887C94.7485 18.5105 94.9293 19.0332 95.5653 19.0332C95.8316 19.0305 96.0962 18.9888 96.3508 18.9096V21.6186C95.72 21.7924 95.0684 21.8756 94.4149 21.8658C93.7773 21.9075 93.1479 21.7023 92.6532 21.2914C92.1586 20.8805 91.8355 20.2945 91.7489 19.6513C91.1607 20.3621 90.4288 20.9359 89.603 21.3339C88.7772 21.7318 87.8768 21.9445 86.9629 21.9576C83.4211 21.9576 81.3009 19.9586 81.3009 17.013C81.3009 14.5831 83.5115 12.3686 87.5572 12.3686H91.4952V11.4327C91.4952 10.2318 91.0086 8.60716 88.1933 8.60716C86.3164 8.60716 85.1659 9.56076 85.1033 11.4327H85.086ZM91.4952 15.6179V14.848H87.8735C85.1763 14.848 84.6341 16.2325 84.6341 17.0024C84.6341 18.062 85.3293 19.1568 87.3278 19.1568C89.9937 19.1568 91.4779 17.3097 91.4779 15.625L91.4952 15.6179ZM23.1414 22C21.565 22 20.024 21.5249 18.7133 20.6349C17.4025 19.7449 16.381 18.4798 15.7779 16.9998C15.1748 15.5198 15.0172 13.8912 15.325 12.3202C15.6328 10.7491 16.3922 9.30609 17.5071 8.17363C18.6221 7.04116 20.0425 6.27013 21.5887 5.95804C23.135 5.64595 24.7375 5.80684 26.1938 6.42034C27.65 7.03384 28.8945 8.07241 29.7698 9.40468C30.6451 10.7369 31.112 12.3031 31.1113 13.905C31.1095 16.0519 30.2691 18.1104 28.7747 19.6282C27.2804 21.146 25.2543 21.9991 23.1414 22V22ZM23.1414 8.88971C22.1653 8.88971 21.211 9.18385 20.3994 9.73493C19.5877 10.286 18.9552 11.0693 18.5816 11.9857C18.208 12.9021 18.1103 13.9105 18.3007 14.8834C18.4912 15.8563 18.9612 16.7499 19.6515 17.4513C20.3417 18.1527 21.2212 18.6303 22.1786 18.8238C23.136 19.0174 24.1283 18.918 25.0302 18.5385C25.932 18.1589 26.7029 17.516 27.2452 16.6913C27.7875 15.8665 28.077 14.8969 28.077 13.905C28.0761 12.5751 27.5558 11.3 26.6304 10.3597C25.705 9.41934 24.4501 8.89065 23.1414 8.88971ZM116.705 16.2501C117.702 16.5256 118.703 16.8329 119.701 17.1437C119.006 19.39 116.92 21.9753 112.749 21.9753C108.578 21.9753 105.544 18.68 105.544 13.8802C105.544 9.08043 108.325 5.7852 112.6 5.7852C116.875 5.7852 119.503 8.6778 119.503 13.3893C119.511 13.8822 119.492 14.3751 119.444 14.8656H108.923C108.982 17.1437 110.525 19.1745 112.746 19.1745C114.352 19.1745 115.926 18.4046 116.715 16.2501H116.705ZM116.02 12.3651C115.93 10.0588 114.842 8.57891 112.6 8.57891C110.417 8.57891 109.176 10.4261 109.086 12.3651H116.02ZM120.914 17.0836C122.005 16.8682 123.062 16.6528 124.122 16.4691C124.334 17.6982 125.064 19.178 127.514 19.178C128.06 19.178 130.757 18.9626 130.757 16.9918C130.757 13.2692 121.373 17.1154 121.373 10.4367C121.373 7.7913 123.976 5.78873 127.247 5.78873C130.517 5.78873 133.301 7.17675 133.757 10.6521C132.665 10.8358 131.605 11.0512 130.549 11.2667C130.337 9.32766 129.158 8.62129 127.337 8.62129C125.731 8.62129 124.643 9.48306 124.643 10.4367C124.643 11.6975 125.794 12.0366 127.608 12.2203C131.063 12.5911 134 13.3611 134 16.9918C134 20.2553 131.181 21.9753 127.518 21.9753C123.583 21.9753 121.341 19.8844 120.914 17.0836V17.0836ZM95.8677 8.60716V6.08188H98.5023V1.59994H101.773V6.09247H104.967V8.60716H101.787V17.4368C101.787 18.6694 102.152 19.0368 103.212 19.0368C103.664 19.0368 104.665 18.9767 104.665 18.9767V21.6751C104.665 21.6751 103.493 21.7987 102.333 21.7987C99.4547 21.7987 98.5093 20.227 98.5093 17.2426V8.60716H95.8677Z" fill="black"/>
</svg>
