<svg width="70" height="30" viewBox="0 0 70 30" fill="none" xmlns="http://www.w3.org/2000/svg">
<path d="M56.9275 6.85651C57.6081 6.83998 58.2712 7.07817 58.7845 7.52539C59.3124 8.0115 59.677 8.64732 59.8316 9.34732C60.0309 10.2361 60.0707 11.1532 59.9492 12.0559C59.7942 13.254 59.4955 14.4291 59.0596 15.5559C58.6594 16.6643 58.1456 17.7284 57.5264 18.7311C57.2635 19.1505 56.9819 19.5579 56.6825 19.9522C56.6755 19.9625 56.6719 19.9747 56.6724 19.9872C56.673 19.9997 56.6775 20.0116 56.6855 20.0212C56.702 20.0407 56.7302 20.0465 56.7535 20.0348C56.9205 19.9423 57.0836 19.8431 57.2425 19.7373C57.6188 19.4923 57.9814 19.2279 58.3285 18.944C59.2706 18.1687 59.9532 17.1238 60.2846 15.9496C60.4849 15.2409 60.7027 14.5399 60.9467 13.8496C61.316 12.7774 61.7352 11.7231 62.2028 10.6899C62.5227 9.96282 62.882 9.25368 63.279 8.56566C63.561 8.07178 64.0422 7.72081 64.5993 7.60317C65.0895 7.49142 65.5993 7.49909 66.0858 7.62553C66.5298 7.7371 66.9291 7.98168 67.2301 8.32649C67.5413 8.65413 67.619 9.13926 67.4256 9.54759C67.3692 9.69634 67.237 10.0259 66.9929 10.547C66.7479 11.0672 66.4913 11.6972 66.2006 12.3981C65.9089 13.0981 65.6095 13.8584 65.311 14.6527C65.0406 15.3603 64.8134 16.0837 64.6304 16.8188C64.4896 17.3323 64.4289 17.8646 64.4506 18.3967C64.4817 18.7875 64.6314 18.7875 64.7092 18.7875C64.9464 18.7573 65.1661 18.6475 65.3324 18.4764C65.6639 18.1983 65.9779 17.8989 66.2715 17.581C66.6021 17.2271 66.9132 16.8557 67.201 16.4668C67.4645 16.11 67.692 15.796 67.8757 15.5286C67.9535 15.4154 68.0579 15.323 68.1798 15.2596C68.3017 15.1961 68.4373 15.1637 68.5747 15.165C68.8674 15.165 69.1415 15.3099 69.3078 15.551L69.264 15.5656C69.3367 15.6776 69.3744 15.8087 69.3723 15.9421C69.3702 16.0756 69.3285 16.2055 69.2524 16.3152C69.056 16.6233 68.7138 17.1415 68.2053 17.8979C67.6586 18.7009 67.0601 19.4674 66.4135 20.1923C65.7355 20.9617 64.9774 21.6565 64.1521 22.2651C63.4263 22.8425 62.5338 23.1704 61.6068 23.2004C60.8466 23.2004 60.2817 22.9369 59.922 22.4119C59.5716 21.8383 59.4012 21.1729 59.433 20.5015V20.3771C59.4338 20.3558 59.4285 20.3347 59.4176 20.3164C59.4068 20.2981 59.3908 20.2834 59.3717 20.274C59.3524 20.2646 59.3308 20.2611 59.3096 20.2639C59.2883 20.2667 59.2684 20.2756 59.2521 20.2896C59.0898 20.4179 58.9264 20.5462 58.7631 20.6726C57.7227 21.4436 56.5838 22.072 55.3769 22.5412C54.2005 22.9981 52.9492 23.2256 51.6883 23.2149C51.5123 23.2149 51.3315 23.2033 51.1506 23.2033C50.2503 23.2004 49.5824 22.9145 49.1644 22.3555C49.091 22.2579 49.0234 22.1559 48.9622 22.0502C48.9517 22.0307 48.9357 22.0149 48.916 22.0047C48.8964 21.9944 48.8742 21.9904 48.8523 21.993C48.8303 21.9956 48.8097 22.0048 48.793 22.0194C48.7764 22.0339 48.7645 22.0531 48.759 22.0745C48.6199 22.5286 48.4945 22.9709 48.3749 23.3909C48.1163 24.297 47.8888 25.0884 47.7051 25.7874C47.5223 26.4855 47.3483 27.1621 47.2161 27.7066C47.0838 28.251 46.9915 28.6963 46.9429 29.0229V29.0356C46.8787 29.4944 46.5297 29.8619 46.0747 29.9514C45.9249 29.9844 45.7733 30 45.6197 30C45.321 29.9962 45.0251 29.9416 44.7447 29.8386C44.2735 29.6647 43.8531 29.376 43.5216 28.9986C43.1501 28.5804 42.9519 28.0363 42.9675 27.4771C43.0132 27.0134 43.1036 26.5555 43.2358 26.1092C43.4118 25.3771 43.649 24.4759 43.9455 23.423C44.1361 22.7094 44.3801 21.9326 44.6251 21.1023C44.6327 21.0803 44.633 21.0564 44.626 21.0342C44.619 21.012 44.605 20.9926 44.5862 20.9789C44.5675 20.9647 44.5446 20.957 44.5211 20.957C44.4975 20.957 44.4747 20.9647 44.4559 20.9789C43.5388 21.6034 42.5546 22.1232 41.5218 22.5286C40.3464 22.9855 39.0941 23.214 37.8332 23.2033C37.6572 23.2033 37.4764 23.1906 37.2955 23.1906C36.3953 23.1887 35.7283 22.9029 35.3103 22.3429C35.2362 22.2452 35.168 22.1433 35.1061 22.0376C35.0955 22.0184 35.0795 22.0029 35.06 21.9929C35.0405 21.9829 35.0185 21.979 34.9968 21.9816C34.9751 21.9842 34.9546 21.9932 34.9381 22.0075C34.9215 22.0218 34.9096 22.0408 34.9039 22.0619C34.7648 22.5188 34.6394 22.9583 34.5198 23.3792C34.2612 24.2873 34.0435 25.0738 33.85 25.7748C33.6575 26.4757 33.4805 27.1495 33.3493 27.6968C33.2396 28.1316 33.1481 28.5708 33.0751 29.0132V29.0258C33.011 29.4847 32.6619 29.8522 32.2069 29.9417C32.0585 29.9744 31.9069 29.9907 31.7549 29.9903C31.4562 29.9865 31.1603 29.9319 30.8799 29.8289C30.4087 29.655 29.9883 29.3663 29.6568 28.9889C29.2853 28.5707 29.0871 28.0266 29.1026 27.4674C29.1483 27.0036 29.2388 26.5457 29.371 26.0995C29.7642 24.5272 30.1947 22.9644 30.6621 21.4125C30.6693 21.3892 30.6686 21.3642 30.6602 21.3414C30.6517 21.3185 30.636 21.2991 30.6154 21.2861C30.5945 21.2736 30.5701 21.2682 30.5459 21.2708C30.5217 21.2735 30.499 21.2839 30.4812 21.3007C30.1186 21.6351 29.7385 21.9511 29.3418 22.2456C28.6275 22.8261 27.7435 23.1578 26.8238 23.1906C26.0654 23.1906 25.4986 22.9272 25.1389 22.4022C24.9883 22.1769 24.8735 21.9296 24.7986 21.6691C24.7823 21.6133 24.7514 21.5627 24.7093 21.5226C24.6671 21.4825 24.6151 21.4542 24.5585 21.4407C24.5017 21.4268 24.4423 21.4282 24.3863 21.4448C24.3303 21.4614 24.2797 21.4925 24.2396 21.535C23.9917 21.7945 23.7204 22.0308 23.4278 22.2379C23.0371 22.5148 22.6131 22.7415 22.1659 22.9126C21.6798 23.0954 21.1645 23.1877 20.6453 23.1838C19.9564 23.1963 19.2859 22.9614 18.7553 22.5218C18.206 22.0515 17.8065 21.4306 17.6062 20.7358C17.3641 19.8547 17.2814 18.9374 17.3621 18.0272C17.4555 16.8401 17.6937 15.6677 18.0719 14.537C18.9274 11.9071 20.0143 9.98703 21.3842 8.7426C22.7531 7.49623 24.1443 6.86332 25.5161 6.86332C26.0276 6.84408 26.5346 6.96511 26.9822 7.21331C27.3507 7.4272 27.6531 7.73928 27.8553 8.11358C27.9885 8.36441 28.0857 8.63274 28.144 8.91079C28.147 8.92142 28.153 8.93094 28.1613 8.9382C28.1695 8.94546 28.1798 8.95012 28.1907 8.95163C28.2016 8.95302 28.2127 8.95129 28.2227 8.94664C28.2327 8.942 28.2411 8.93463 28.2471 8.92538C28.3151 8.79996 28.3813 8.68816 28.4445 8.5851C28.5821 8.34306 28.769 8.13259 28.9931 7.9673C29.2171 7.80201 29.4734 7.68558 29.7453 7.62553C30.2352 7.51282 30.745 7.51949 31.2318 7.64497C31.6839 7.75386 32.0912 7.99983 32.3985 8.34886C32.7096 8.67649 32.7874 9.16162 32.5929 9.56995C32.5375 9.71578 32.3907 10.0531 32.1612 10.5684C31.5569 11.9204 30.994 13.2906 30.4735 14.677C30.2033 15.3846 29.9764 16.1079 29.7939 16.8431C29.6528 17.3566 29.5918 17.8888 29.6131 18.421C29.6451 18.8118 29.7939 18.8118 29.8726 18.8118C30.1099 18.7817 30.3296 18.6718 30.4958 18.5007C30.6669 18.35 30.8458 18.1896 31.0267 18.0126C31.7117 17.3589 32.2247 16.546 32.52 15.6463C32.938 14.4125 33.3804 13.1944 33.8325 12.0199C34.2647 10.893 34.7329 9.78023 35.2364 8.6833C35.4415 8.20983 35.8401 7.84719 36.3321 7.68678C36.7832 7.53609 37.2654 7.50303 37.7321 7.5915C38.1761 7.6704 38.5926 7.86112 38.9425 8.14566C39.0833 8.25804 39.2048 8.39268 39.3022 8.54427C39.3265 8.57052 39.3537 8.57538 39.3877 8.54427C39.7951 8.16511 40.2355 7.82483 40.7032 7.52539C41.403 7.07871 42.218 6.84622 43.0482 6.85651C43.7289 6.84027 44.3911 7.07881 44.9051 7.52539C45.4311 8.0115 45.7947 8.6483 45.9473 9.34732C46.1466 10.2359 46.1865 11.1537 46.064 12.0559C45.9094 13.2541 45.6107 14.4293 45.1744 15.5559C44.7745 16.6643 44.261 17.7283 43.6422 18.7311C43.368 19.1686 43.088 19.5769 42.8012 19.9522C42.7936 19.9623 42.7898 19.9746 42.7903 19.9872C42.7908 19.9998 42.7957 20.0118 42.8041 20.0212C42.8207 20.0407 42.8488 20.0465 42.8722 20.0348C43.0345 19.9444 43.1979 19.8453 43.3602 19.7373C43.6315 19.5594 43.8862 19.3757 44.1263 19.1851C45.0732 18.4585 45.7809 17.465 46.1583 16.3327C46.6369 14.8781 47.152 13.4359 47.7031 12.0073C48.1343 10.8801 48.6022 9.76728 49.106 8.67066C49.3112 8.19719 49.7098 7.83456 50.2017 7.67414C50.6528 7.52345 51.1351 7.49039 51.6017 7.57886C52.0456 7.65817 52.4621 7.84884 52.8121 8.13302C52.958 8.24969 53.0844 8.38774 53.1845 8.54427C53.2088 8.57052 53.236 8.57538 53.2701 8.54427C53.6768 8.1656 54.1171 7.82458 54.5855 7.52539C55.2843 7.07905 56.0984 6.84657 56.9275 6.85651ZM11.3947 0.603248C12.4415 0.60203 13.485 0.72308 14.5038 0.963939C15.4732 1.18438 16.4027 1.55366 17.2591 2.05865C18.0446 2.52026 18.723 3.14362 19.2492 3.88738C19.7693 4.64181 20.0396 5.54014 20.0241 6.45402C20.0332 7.46183 19.8001 8.45709 19.3445 9.35607C18.8825 10.2521 18.2635 11.0579 17.5167 11.7351C16.7116 12.4624 15.8115 13.0773 14.8412 13.5628C13.9876 13.9925 13.1009 14.3532 12.189 14.6391C12.164 14.6434 12.1418 14.6573 12.1271 14.6778C12.1123 14.6984 12.1063 14.7239 12.1102 14.7489C12.1297 15.2107 12.1647 15.6628 12.2074 16.1022C12.2599 16.6049 12.3309 17.0958 12.4135 17.5674C12.5503 18.3383 12.7483 19.0971 13.0056 19.8365C13.3055 20.6992 13.717 21.5189 14.2296 22.2748C14.4105 22.5305 14.6069 22.7755 14.8198 23.0069C15.0162 23.2208 15.2281 23.422 15.4527 23.6077C15.6627 23.7808 15.8863 23.9383 16.1196 24.0792C16.5622 24.3458 17.0458 24.5377 17.5507 24.647C17.7987 24.7034 18.0514 24.7394 18.3062 24.7549C18.5687 24.7744 18.8312 24.7744 19.0937 24.7549C19.3698 24.7316 19.6439 24.6869 19.9142 24.6237C20.2039 24.5556 20.4878 24.4681 20.7649 24.3621C21.0663 24.2484 21.3589 24.1162 21.6428 23.9665C21.7556 23.9081 21.8655 23.8469 21.9782 23.7837C22.1532 23.6802 22.3606 23.646 22.5595 23.6879C22.7583 23.7298 22.9343 23.8447 23.0527 24.0099C23.1711 24.1751 23.2232 24.3787 23.1989 24.5805C23.1746 24.7823 23.0755 24.9677 22.9213 25.1001C22.4184 25.5402 21.892 25.9527 21.3443 26.3357C21.0056 26.5724 20.6558 26.793 20.2963 26.9968C20.1184 27.1007 19.9372 27.1986 19.7528 27.2904C19.4028 27.4684 19.0431 27.6278 18.6746 27.7668C18.3255 27.8969 17.9686 28.0053 17.6062 28.0915C17.0257 28.2354 16.4299 28.3085 15.8319 28.3093H15.5431C15.0519 28.2871 14.5648 28.2101 14.0906 28.0799C13.9352 28.0367 13.7818 27.9868 13.6308 27.9302C13.0293 27.7078 12.4636 27.3986 11.9517 27.0124C11.4734 26.6514 11.0414 26.2328 10.6655 25.766C10.4475 25.503 10.2453 25.2274 10.0598 24.9406C9.66405 24.3309 9.32898 23.6839 9.05939 23.0088C8.76546 22.2701 8.52757 21.5103 8.34772 20.7358C8.25244 20.3275 8.17272 19.9046 8.1037 19.4797C8.04091 19.0932 7.99033 18.7047 7.95203 18.315C7.951 18.2881 7.94031 18.2625 7.92192 18.2428C7.90352 18.2232 7.87866 18.2108 7.85189 18.2081C7.82499 18.2058 7.7982 18.2135 7.77654 18.2296C7.75488 18.2457 7.73984 18.2691 7.73425 18.2956H7.72939C7.58259 18.8128 7.4455 19.3164 7.33856 19.7947C7.17523 20.4072 7.0362 20.9575 6.92051 21.4455C6.79801 21.9345 6.71245 22.3156 6.67551 22.5986C6.59578 23.0827 6.20884 23.457 5.72273 23.5222C5.23517 23.6079 4.73369 23.5657 4.26732 23.3997C3.76552 23.2324 3.30997 22.9497 2.93733 22.5743C2.73455 22.3745 2.57482 22.1353 2.46798 21.8715C2.36114 21.6076 2.30944 21.3247 2.31608 21.0401C2.36177 20.2341 2.48816 19.436 2.6933 18.6543C2.93733 17.5703 3.29899 16.2802 3.75885 14.8267C4.26497 13.2376 4.81284 11.662 5.4019 10.1018C5.94634 8.63566 6.55884 7.18512 7.21995 5.74138C7.43773 5.26889 7.88689 4.94417 8.40411 4.88389C9.41767 4.74249 10.448 4.77636 11.4501 4.98403C11.5715 5.01269 11.6851 5.06779 11.7827 5.1454C11.8804 5.22301 11.9598 5.32122 12.0151 5.43303C12.0704 5.54483 12.1004 5.66746 12.1029 5.79219C12.1054 5.91691 12.0803 6.04065 12.0295 6.15457C11.4866 7.36558 10.9789 8.59206 10.507 9.83245C10.1376 10.8095 9.77299 11.772 9.4473 12.7073C9.44017 12.728 9.43922 12.7503 9.44458 12.7716C9.44993 12.7928 9.46135 12.812 9.47744 12.8269C9.5105 12.856 9.55911 12.8638 9.59994 12.8444C10.0549 12.6305 10.4954 12.3855 10.9173 12.1113C11.6218 11.6598 12.2646 11.1186 12.8296 10.5013C13.3837 9.89399 13.8405 9.20465 14.184 8.45774C14.5282 7.70516 14.705 6.88685 14.7021 6.0593C14.7021 4.96264 14.3988 4.15376 13.7999 3.65307C13.201 3.15239 12.3377 2.88406 11.2498 2.88406C10.1563 2.86946 9.07891 3.14846 8.12995 3.69196C7.21059 4.2196 6.38796 4.90019 5.69745 5.70444C5.0482 6.45684 4.51713 7.30359 4.12246 8.21566C3.79168 8.92597 3.6034 9.69426 3.5683 10.477C3.5777 10.6848 3.51597 10.8895 3.39329 11.0574C3.27062 11.2254 3.09434 11.3464 2.89358 11.4006C2.49134 11.5214 2.05994 11.5015 1.67052 11.3442C1.21173 11.1558 0.815422 10.8418 0.527195 10.4381C0.15746 9.91205 -0.0268819 9.27797 0.00316922 8.63566C0.00316922 7.98136 0.248168 7.20942 0.7615 6.27902C1.32863 5.28333 2.06492 4.39407 2.93733 3.65113C4.00309 2.74705 5.20797 2.02117 6.50537 1.50157C8.05936 0.881874 9.72091 0.576861 11.3937 0.604221L11.3947 0.603248ZM41.269 9.76148L41.2457 9.76439C41.1133 9.78262 40.9892 9.83943 40.8889 9.92773C40.5473 10.1915 40.2423 10.4995 39.9818 10.8435C39.5932 11.343 39.2404 11.8693 38.9259 12.4185C38.5401 13.0839 38.1972 13.7734 37.8993 14.4825C37.5989 15.1942 37.3383 15.9214 37.1186 16.6613C36.93 17.2786 36.7774 17.9064 36.6616 18.5415C36.5722 18.979 36.5479 19.4262 36.5887 19.8705C36.6373 20.2439 36.7521 20.3226 36.7861 20.3372C36.8021 20.3411 36.8187 20.3411 36.8347 20.3372C36.9672 20.3197 37.0917 20.2636 37.1925 20.1758C37.5357 19.9104 37.84 19.5983 38.0966 19.2483C38.4807 18.7428 38.8278 18.2119 39.1369 17.6578C39.4908 17.0297 39.8427 16.3317 40.185 15.5841C40.4864 14.8753 40.7489 14.15 40.9725 13.4131C41.1591 12.8006 41.3118 12.1774 41.4294 11.5465L41.4197 11.5426C41.5091 11.1109 41.5334 10.6695 41.4926 10.2301C41.442 9.85967 41.3273 9.77898 41.2923 9.76342C41.2769 9.76053 41.2611 9.76053 41.2457 9.76342L41.269 9.76148ZM55.1251 9.76148C54.993 9.78079 54.8692 9.83746 54.7682 9.92481C54.4289 10.1873 54.1266 10.4926 53.8689 10.8338C53.4801 11.3326 53.1262 11.8595 52.8121 12.4088C52.4271 13.0809 52.0852 13.7768 51.7884 14.4923C51.4853 15.2001 51.2217 15.9242 50.999 16.6613C50.8094 17.2786 50.6567 17.9057 50.542 18.5415C50.4509 18.9783 50.426 19.4263 50.4681 19.8705C50.5167 20.2439 50.6315 20.3226 50.6665 20.3372C50.6824 20.3411 50.6991 20.3411 50.7151 20.3372C50.8473 20.3196 50.9714 20.2635 51.0719 20.1758C51.4151 19.9094 51.7194 19.5973 51.976 19.2483C52.3601 18.7428 52.7052 18.2119 53.0134 17.6578C53.3702 17.0297 53.7221 16.3317 54.0644 15.5841C54.3628 14.8743 54.6224 14.1471 54.8421 13.4082C55.0288 12.7957 55.1824 12.1726 55.2991 11.5416C55.3866 11.109 55.4119 10.6666 55.3701 10.2281C55.3214 9.85676 55.2057 9.77606 55.1717 9.76148C55.1563 9.75858 55.1405 9.75858 55.1251 9.76148ZM26.1102 9.69537C25.9848 9.71331 25.8678 9.76891 25.7747 9.85481C25.4481 10.1193 25.1622 10.4313 24.927 10.7804C24.5711 11.284 24.2561 11.8148 23.9829 12.368C23.6439 13.0444 23.337 13.7364 23.0632 14.4417C22.7837 15.1466 22.5512 15.8693 22.3671 16.6049C22.2114 17.2147 22.1019 17.8355 22.0395 18.4618C21.9909 18.9022 21.9957 19.3485 22.056 19.7879C22.1202 20.1641 22.2398 20.2468 22.2738 20.2614C22.2892 20.2643 22.305 20.2643 22.3204 20.2614C22.4455 20.244 22.5622 20.1887 22.6549 20.1029C22.9806 19.8404 23.2674 19.5341 23.5056 19.1919C23.8634 18.6961 24.1784 18.1711 24.4496 17.6238C24.7704 16.9889 25.0777 16.2821 25.3693 15.55C25.6474 14.8442 25.8807 14.1209 26.0654 13.3859C26.221 12.7714 26.3347 12.1473 26.4077 11.5173C26.473 11.0751 26.4697 10.6255 26.3979 10.1844C26.3153 9.79551 26.1909 9.71287 26.1539 9.69537C26.1395 9.69246 26.1246 9.69246 26.1102 9.69537ZM66.8996 0.000477528C67.3065 0.000222103 67.7094 0.0801126 68.0855 0.235588C68.4615 0.391063 68.8032 0.619078 69.0911 0.906614C69.379 1.19415 69.6074 1.53558 69.7634 1.9114C69.9193 2.28722 69.9997 2.69008 70 3.09697C69.9999 3.50394 69.9196 3.90691 69.7637 4.28284C69.6078 4.65878 69.3794 5.00032 69.0914 5.28796C68.8035 5.57559 68.4618 5.8037 68.0857 5.95923C67.7096 6.11477 67.3066 6.19469 66.8996 6.19443C66.4883 6.20179 66.0796 6.12713 65.6974 5.97483C65.3153 5.82252 64.9673 5.59562 64.6738 5.30736C64.3803 5.0191 64.1472 4.67527 63.988 4.29592C63.8288 3.91658 63.7468 3.50933 63.7467 3.09795C63.7467 2.68657 63.8286 2.27929 63.9876 1.8999C64.1467 1.52051 64.3797 1.1766 64.6731 0.888252C64.9665 0.599903 65.3144 0.37289 65.6966 0.220464C66.0787 0.0680384 66.4873 -0.00674559 66.8986 0.000477528H66.8996Z" fill="black"/>
</svg>
