<svg width="126" height="20" viewBox="0 0 126 20" fill="none" xmlns="http://www.w3.org/2000/svg">
<path d="M94.2756 12.3821C94.2756 9.90566 92.2652 7.95991 89.7282 7.95991C87.2272 7.95991 85.1808 9.90566 85.1808 12.3821C85.1808 14.8585 87.2272 16.8042 89.7282 16.8042C92.2652 16.8042 94.2756 14.8585 94.2756 12.3821V12.3821ZM97.9854 5.14151V19.6344H94.2038V18.3255C92.8875 19.3986 91.2241 20 89.4171 20C84.9415 20 81.4472 16.6156 81.4472 12.3821C81.4472 8.16038 84.9535 4.76415 89.4171 4.76415C91.2241 4.76415 92.8875 5.36557 94.2038 6.43868V5.14151H97.9854V5.14151ZM110.551 16.3443H107.702C106.841 16.3443 106.278 15.9788 106.278 15.2005V8.41981H110.539V5.14151H106.278V1.01415H102.461V5.14151H99.5889V8.4316H102.461V16.1321C102.461 18.0778 103.885 19.6226 106.446 19.6226H110.539V16.3443H110.551ZM119.167 20C123.535 20 126 17.9835 126 15.2005C126 13.2193 124.54 11.7453 121.488 11.1085L118.257 10.4717C116.39 10.1415 115.792 9.79953 115.792 9.12736C115.792 8.25472 116.69 7.72406 118.353 7.72406C120.16 7.72406 121.476 8.19576 121.859 9.79953H125.641C125.437 6.78066 123.176 4.76415 118.604 4.76415C114.655 4.76415 111.879 6.34434 111.879 9.39859C111.879 11.5094 113.411 12.8892 116.702 13.5613L120.304 14.3632C121.728 14.6344 122.111 15 122.111 15.566C122.111 16.4741 121.034 17.0401 119.298 17.0401C117.12 17.0401 115.864 16.5684 115.385 14.9646H111.568C112.13 17.9835 114.452 20 119.167 20V20ZM66.1895 0H80.442V3.34906H70.0428V8.14859H80.1667V11.4033H70.0428V16.2618H80.442V19.6108H66.1895V0Z" fill="black"/>
<path d="M59.4154 7.84198V5.21226H58.3982C56.7827 5.21226 55.586 5.94339 54.868 7.08726V5.31839H51.972V19.5991H54.8919V11.4858C54.8919 9.26887 56.2801 7.84198 58.1948 7.84198H59.4154V7.84198ZM38.4016 11.1439C38.9281 8.96226 40.7471 7.5 42.9131 7.5C45.0791 7.5 46.91 8.95047 47.4007 11.1439H38.4016ZM42.9729 5.04717C38.6649 5.04717 35.386 8.4316 35.386 12.4646C35.386 16.7217 38.7965 19.9174 43.2362 19.9174C45.9288 19.9174 48.1307 18.7736 49.6026 16.8632L47.4844 15.3538C46.3835 16.7807 44.9355 17.4528 43.2242 17.4528C40.7351 17.4528 38.7367 15.7193 38.3298 13.3962H50.3445V12.4764C50.3565 8.20755 47.2331 5.04717 42.9729 5.04717ZM26.2672 17.4528C23.4311 17.4528 21.1693 15.2358 21.1693 12.5C21.1693 9.72877 23.455 7.54717 26.2672 7.54717C29.0435 7.54717 31.3292 9.72877 31.3292 12.5C31.3412 15.2358 29.0555 17.4528 26.2672 17.4528ZM18.3093 19.6108H21.2052V17.8184C22.5336 19.1391 24.4243 19.941 26.4707 19.941C30.8146 19.941 34.2252 16.6038 34.2252 12.4882C34.2252 8.34906 30.8146 5.01179 26.4707 5.01179C24.4124 5.01179 22.5575 5.82547 21.2292 7.13443V0H18.3093V19.6108V19.6108ZM8.02975 17.3113C10.842 17.3113 13.008 15.2123 13.008 12.0991V0H16.0475V19.5991H13.0319V17.783C11.6677 19.1509 9.78888 19.941 7.67075 19.941C3.32678 19.941 0 16.8868 0 12.2641V0H3.05155V12.0991C3.05155 15.2712 5.19361 17.3113 8.02975 17.3113Z" fill="black"/>
</svg>
