<svg width="36" height="36" viewBox="0 0 36 36" fill="none" xmlns="http://www.w3.org/2000/svg">
<path d="M8.43544 4.00205C8.28357 4.0179 8.13969 4.0866 8.03045 4.19229C8.03045 4.19229 3 8.82929 3 14.4439C3 17.4375 4.17768 20.3782 7.17783 22.2224C7.50289 23.5541 7.73736 24.7536 7.56151 25.8158C7.50022 26.0642 7.58549 26.3231 7.77999 26.4895C7.97449 26.656 8.24893 26.6983 8.48606 26.6005C8.7232 26.5028 8.88573 26.2808 8.90438 26.0272C9.27474 23.7919 8.37416 21.6623 7.85992 19.3055C7.34569 16.9487 7.14586 14.3805 8.62728 11.1465C8.73119 10.9351 8.71787 10.6867 8.58998 10.4886C8.46475 10.2931 8.24627 10.1715 8.00913 10.1742C7.73736 10.1794 7.49223 10.3459 7.39098 10.5969C5.77101 14.1295 5.99749 17.0914 6.53836 19.5803C6.58366 19.789 6.63961 19.9713 6.68757 20.1721C5.00898 18.6449 4.36419 16.6369 4.36419 14.4439C4.36419 10.1609 7.70272 6.55967 8.47807 5.75645C9.16017 6.53325 11.2917 9.04331 11.7607 11.8651C12.0804 13.7886 11.5608 15.4215 10.8867 16.6422C10.551 17.2525 10.178 17.7572 9.86358 18.1218C9.54917 18.4864 9.25875 18.7506 9.22411 18.7771C8.99764 18.9092 8.86708 19.1549 8.88839 19.4138C8.90704 19.6754 9.07757 19.8973 9.3227 19.9925C9.56516 20.0849 9.84226 20.0321 10.0341 19.8551C10.2473 19.6965 10.5403 19.4376 10.908 19.0096C11.2757 18.5815 11.6914 18.0029 12.0804 17.2974C12.8584 15.8865 13.4819 13.934 13.1035 11.6538C12.4481 7.70637 8.98964 4.21342 8.98964 4.21342C8.84843 4.06282 8.64327 3.9862 8.43544 4.00205ZM20.6705 15.543C20.2016 15.543 19.7273 15.5747 19.2424 15.6276C14.0814 16.1824 11.6727 19.0386 10.7375 21.694C9.80229 24.3494 10.2046 26.8515 10.2046 26.8515C10.2046 26.8594 10.2046 26.8647 10.2046 26.8727C8.11304 29.0419 7.17783 30.9522 7.17783 30.9522C7.03395 31.1715 7.02862 31.4542 7.16451 31.6761C7.30306 31.9007 7.55884 32.0249 7.82262 31.9958C8.08374 31.9668 8.30755 31.7924 8.39281 31.544C8.39281 31.544 10.8174 26.5926 16.7272 23.8289C20.7584 21.9424 25.9781 22.5184 25.9781 22.5184C26.2338 22.5844 26.5056 22.4972 26.6735 22.2938C26.8413 22.093 26.8786 21.8129 26.7641 21.5751C26.6522 21.3373 26.4124 21.1867 26.1486 21.1867C26.1486 21.1867 24.7737 21.0123 22.8447 21.1022C20.9156 21.192 18.4164 21.5434 16.1516 22.6029C14.2812 23.4775 12.7358 24.5528 11.4835 25.6467C11.4649 24.7906 11.5315 23.5118 12.0164 22.1379C12.8264 19.8418 14.6649 17.4903 19.3916 16.9804C25.6716 16.304 30.5289 20.7138 31.4561 21.6095C30.7927 22.7694 27.0492 28.8411 20.095 29.5994C16.2103 30.0221 12.8051 28.2254 12.8051 28.2254C12.5893 28.0748 12.3069 28.0616 12.0751 28.1885C11.8459 28.3179 11.7127 28.5663 11.7313 28.8279C11.75 29.0894 11.9205 29.314 12.1656 29.4091C12.1656 29.4091 15.8639 31.4093 20.2442 30.931C28.7357 30.0036 32.9269 21.7786 32.9269 21.7786C33.0548 21.5275 33.0122 21.2237 32.8203 21.0176C32.8203 21.0176 27.7019 15.5404 20.6705 15.543Z" fill="white"/>
</svg>
